<svg width="527" height="527" viewBox="0 0 527 527" fill="none" xmlns="http://www.w3.org/2000/svg">
<circle class="bg" cx="263.5" cy="263.5" r="263.5" fill="white"/>
<path class='fg' d="M137.998 157.908C137.998 151.088 137.998 147.68 139.284 145.056C140.514 142.544 142.544 140.514 145.056 139.284C147.678 138 151.086 138 157.906 138H370.09C376.908 138 380.32 138 382.942 139.286C385.452 140.516 387.482 142.546 388.714 145.058C389.998 147.68 389.998 151.09 389.998 157.91V370.094C389.998 376.912 389.998 380.324 388.714 382.946C387.482 385.456 385.452 387.486 382.942 388.718C380.32 390.002 376.908 390.002 370.09 390.002H157.906C151.086 390.002 147.678 390.002 145.054 388.718C142.542 387.486 140.512 385.456 139.282 382.946C137.996 380.324 137.996 376.912 137.996 370.094V157.908H137.998Z" fill="#0000FF"/>
</svg>