<?xml version="1.0" encoding="UTF-8"?>
<svg version="1.1" xmlns="http://www.w3.org/2000/svg" width="320" height="320">
<path d="M0 0 C5.1822703 4.55601407 9.85312751 9.30429191 14.2109375 14.6484375 C15.04367187 15.64359375 15.87640625 16.63875 16.734375 17.6640625 C32.6879365 37.05608706 43.04124963 59.39000538 49.2109375 83.6484375 C49.39027832 84.32648438 49.56961914 85.00453125 49.75439453 85.703125 C59.33184115 123.59443316 50.75422533 168.1656449 31.0546875 201.35546875 C21.88605925 216.24991956 10.79426063 230.57210354 -2.7890625 241.6484375 C-3.78421875 242.48117187 -4.779375 243.31390625 -5.8046875 244.171875 C-25.19671206 260.1254365 -47.53063038 270.47874963 -71.7890625 276.6484375 C-72.46710938 276.82777832 -73.14515625 277.00711914 -73.84375 277.19189453 C-111.73505816 286.76934115 -156.3062699 278.19172533 -189.49609375 258.4921875 C-204.39054456 249.32355925 -218.71272854 238.23176063 -229.7890625 224.6484375 C-230.62179688 223.65328125 -231.45453125 222.658125 -232.3125 221.6328125 C-248.2660615 202.24078794 -258.61937463 179.90686962 -264.7890625 155.6484375 C-265.05807373 154.63136719 -265.05807373 154.63136719 -265.33251953 153.59375 C-274.90996615 115.70244184 -266.33235033 71.1312301 -246.6328125 37.94140625 C-237.46418425 23.04695544 -226.37238563 8.72477146 -212.7890625 -2.3515625 C-211.79390625 -3.18429688 -210.79875 -4.01703125 -209.7734375 -4.875 C-190.38141294 -20.8285615 -168.04749462 -31.18187463 -143.7890625 -37.3515625 C-143.11101562 -37.53090332 -142.43296875 -37.71024414 -141.734375 -37.89501953 C-91.57455175 -50.57346883 -38.38783361 -32.36621265 0 0 Z " fill="#7A5DE6" transform="translate(267.7890625,40.3515625)"/>
<path d="M0 0 C0.81504035 -0.00367669 1.6300807 -0.00735338 2.46981925 -0.01114148 C5.21041052 -0.02218525 7.95096389 -0.02602331 10.6915741 -0.02983093 C12.65270102 -0.03609498 14.61382675 -0.04274173 16.57495117 -0.04974365 C21.90971286 -0.06715694 27.2444656 -0.07770601 32.57924867 -0.08594918 C35.91091394 -0.09109794 39.24257643 -0.09717368 42.57423973 -0.10346031 C52.99453401 -0.12251208 63.4148212 -0.13674406 73.83512956 -0.14507228 C85.87082033 -0.15485 97.90632744 -0.18118363 109.94195348 -0.22157317 C119.24054619 -0.25170904 128.53908617 -0.2665387 137.83772677 -0.26985329 C143.3935569 -0.27220637 148.94919082 -0.28120056 154.50496864 -0.30631447 C159.73100271 -0.32955633 164.95671082 -0.33384402 170.18278313 -0.32355309 C172.10083219 -0.32305669 174.01889709 -0.32940748 175.93689728 -0.34310913 C178.55589858 -0.36077178 181.17372295 -0.35374998 183.79272461 -0.34057617 C184.55139086 -0.35154542 185.31005711 -0.36251466 186.09171325 -0.37381631 C192.14321717 -0.30034557 195.43821242 1.8638733 199.89933777 5.70967102 C202.60596879 8.98611909 202.21952028 12.61622823 202.23400879 16.65567017 C202.23768548 17.31961908 202.24136217 17.98356799 202.24515027 18.66763657 C202.25618106 20.89690651 202.26002989 23.12612983 202.26383972 25.35542297 C202.27010477 26.95202279 202.27675161 28.54862114 202.28375244 30.1452179 C202.30478811 35.39195237 202.31515349 40.63868712 202.32511902 45.88545227 C202.32916658 47.69158125 202.3332835 49.49771007 202.3374691 51.30383873 C202.35651868 59.78808063 202.37075092 68.27231384 202.37908107 76.75657302 C202.38885689 86.55154264 202.41518632 96.34628648 202.45558196 106.14117652 C202.48573258 113.7115461 202.50054889 121.28185091 202.50386208 128.85227937 C202.50621354 133.37413847 202.51518652 137.89575631 202.54032326 142.41755104 C202.56359099 146.67180837 202.56784256 150.92566534 202.55756187 155.17996979 C202.5570661 156.74003366 202.56339877 158.30011715 202.57711792 159.86012077 C202.59482452 161.99313332 202.58773872 164.124707 202.57458496 166.25772095 C202.57697331 167.45031178 202.57936167 168.64290262 202.5818224 169.87163258 C201.85854171 174.65790988 199.62557746 177.79494524 196.02433777 180.95967102 C191.88683011 183.49556281 187.89629704 183.29547627 183.2116394 183.29434204 C182.4006826 183.29801873 181.58972581 183.30169542 180.75419456 183.30548352 C178.02742279 183.316527 175.30068911 183.32036531 172.57389832 183.32417297 C170.62262348 183.33043705 168.67134984 183.3370838 166.72007751 183.34408569 C161.41217449 183.36149879 156.10428047 183.37204799 150.79635596 183.38029122 C147.48144165 183.38544002 144.16653015 183.39151576 140.85161781 183.39780235 C130.48364927 183.41685407 120.11568785 183.43108606 109.74770516 183.43941432 C97.77257452 183.449192 85.79762846 183.47552554 73.82256287 183.51591522 C64.5706789 183.54605141 55.31884792 183.56088077 46.06691581 183.56419533 C40.53903094 183.56654837 35.01134327 183.5755421 29.48351097 183.60065651 C24.28374125 183.62389894 19.08429912 183.62818584 13.88449097 183.61789513 C11.97611719 183.61739875 10.0677275 183.62374913 8.15940285 183.63745117 C5.5535368 183.65511479 2.94885349 183.64809157 0.34298706 183.63491821 C-0.78917589 183.65137208 -0.78917589 183.65137208 -1.94421083 183.66815835 C-7.07152848 183.60559975 -9.94850349 182.3503502 -13.91316223 179.14717102 C-17.68743764 174.8523059 -18.04011201 171.27948676 -18.06033325 165.67663574 C-18.06400994 165.01677038 -18.06768663 164.35690502 -18.07147473 163.67704374 C-18.08250509 161.46159328 -18.08635428 159.24618974 -18.09016418 157.03071594 C-18.09642927 155.44396821 -18.10307611 153.85722195 -18.1100769 152.27047729 C-18.1311122 147.0562085 -18.14147793 141.84193943 -18.15144348 136.62763977 C-18.15549106 134.8326548 -18.15960798 133.03766998 -18.16379356 131.24268532 C-18.18284307 122.81076916 -18.19707532 114.37886175 -18.20540553 105.9469282 C-18.21518129 96.2125185 -18.24151058 86.47833598 -18.28190643 76.74400634 C-18.31205754 69.22034549 -18.3268734 61.69674982 -18.33018655 54.17302972 C-18.33253795 49.67911565 -18.34151021 45.18544436 -18.36664772 40.69159508 C-18.38991632 36.46360184 -18.39416668 32.23601146 -18.38388634 28.00797081 C-18.38339059 26.4575822 -18.38972264 24.90717384 -18.40344238 23.35684586 C-18.42115046 21.23696761 -18.41406252 19.11853692 -18.40090942 16.99865723 C-18.40329778 15.81344073 -18.40568613 14.62822424 -18.40814686 13.40709209 C-17.64925706 8.40911699 -14.8011542 4.35899047 -10.91316223 1.14717102 C-7.23153875 -0.08003681 -3.83391831 -0.00092353 0 0 Z " fill="#080707" transform="translate(67.91316223144531,69.85282897949219)"/>
<path d="M0 0 C1.0382832 -0.00550999 2.07656639 -0.01101997 3.14631271 -0.01669693 C4.28422886 -0.0023045 5.422145 0.01208794 6.59454346 0.0269165 C8.42406492 0.02619329 8.42406492 0.02619329 10.29054642 0.02545547 C12.91721218 0.02744138 15.54261508 0.03655997 18.16906738 0.05871582 C21.93327478 0.08869639 25.69692898 0.09913347 29.46124268 0.1026001 C38.50738082 0.12358092 47.55341092 0.17942569 56.59942627 0.23101807 C76.81192627 0.31351807 97.02442627 0.39601807 117.84942627 0.48101807 C117.84942627 42.39101807 117.84942627 84.30101807 117.84942627 127.48101807 C75.93942627 127.48101807 34.02942627 127.48101807 -9.15057373 127.48101807 C-9.23307373 107.26851807 -9.31557373 87.05601807 -9.40057373 66.23101807 C-9.43698975 59.84596924 -9.47340576 53.46092041 -9.51092529 46.88238525 C-9.5289917 39.09283447 -9.5289917 39.09283447 -9.53234863 35.44763184 C-9.54011294 32.22812106 -9.56268246 29.00904315 -9.58984017 25.78964877 C-9.61117689 22.60182193 -9.60593546 19.41402107 -9.60467529 16.22613525 C-9.61906773 15.08821911 -9.63346016 13.95030296 -9.64828873 12.77790451 C-9.64277874 11.73962132 -9.63726875 10.70133812 -9.6315918 9.6315918 C-9.63527897 8.72823467 -9.63896614 7.82487755 -9.64276505 6.89414597 C-8.54732927 1.52341605 -5.11968373 -0.02089667 0 0 Z " fill="#FE613C" transform="translate(68.15057373046875,78.51898193359375)"/>
<path d="M0 0 C64 0 64 0 69 4 C69.61523914 6.42874527 69.61523914 6.42874527 69.60127258 9.1885376 C69.6081459 10.23739136 69.61501923 11.28624512 69.62210083 12.36688232 C69.60412445 13.5119928 69.58614807 14.65710327 69.56762695 15.83691406 C69.56835709 17.04694092 69.56908722 18.25696777 69.56983948 19.50366211 C69.56695358 22.81798083 69.54188975 26.13074048 69.50696969 29.44478321 C69.47570294 32.90941075 69.47277524 36.3740593 69.46684265 39.83880615 C69.45130498 46.39791024 69.41027811 52.95659741 69.3600952 59.51551795 C69.29871523 67.71599441 69.27135409 75.91653865 69.24414062 84.1171875 C69.19544825 98.74511641 69.09528864 113.37213562 69 128 C46.23 128 23.46 128 0 128 C0 85.76 0 43.52 0 0 Z " fill="#E7E3CE" transform="translate(192,78)"/>
<path d="M0 0 C1.0382832 -0.00550999 2.07656639 -0.01101997 3.14631271 -0.01669693 C4.28422886 -0.0023045 5.422145 0.01208794 6.59454346 0.0269165 C8.42406492 0.02619329 8.42406492 0.02619329 10.29054642 0.02545547 C12.91721218 0.02744138 15.54261508 0.03655997 18.16906738 0.05871582 C21.93327478 0.08869639 25.69692898 0.09913347 29.46124268 0.1026001 C38.50738082 0.12358092 47.55341092 0.17942569 56.59942627 0.23101807 C76.81192627 0.31351807 97.02442627 0.39601807 117.84942627 0.48101807 C117.84942627 42.39101807 117.84942627 84.30101807 117.84942627 127.48101807 C75.93942627 127.48101807 34.02942627 127.48101807 -9.15057373 127.48101807 C-9.23307373 107.26851807 -9.31557373 87.05601807 -9.40057373 66.23101807 C-9.43698975 59.84596924 -9.47340576 53.46092041 -9.51092529 46.88238525 C-9.5289917 39.09283447 -9.5289917 39.09283447 -9.53234863 35.44763184 C-9.54011294 32.22812106 -9.56268246 29.00904315 -9.58984017 25.78964877 C-9.61117689 22.60182193 -9.60593546 19.41402107 -9.60467529 16.22613525 C-9.61906773 15.08821911 -9.63346016 13.95030296 -9.64828873 12.77790451 C-9.64277874 11.73962132 -9.63726875 10.70133812 -9.6315918 9.6315918 C-9.63527897 8.72823467 -9.63896614 7.82487755 -9.64276505 6.89414597 C-8.54732927 1.52341605 -5.11968373 -0.02089667 0 0 Z M6.38848877 14.56695557 C5.75684814 15.32234619 5.12520752 16.07773682 4.47442627 16.85601807 C3.82731689 17.60625244 3.18020752 18.35648682 2.51348877 19.12945557 C-0.90362122 23.9583293 -1.40925701 27.99702414 -1.45697021 33.86651611 C-1.46529373 34.59245468 -1.47361725 35.31839325 -1.48219299 36.06632996 C-1.50622162 38.45852075 -1.51505779 40.85043824 -1.52166748 43.24273682 C-1.53064175 44.91557391 -1.53976373 46.58841021 -1.54902649 48.26124573 C-1.56550143 51.76738429 -1.57321343 55.27342756 -1.57611084 58.77960205 C-1.58148225 63.25054177 -1.61911656 67.72057269 -1.664855 72.19125652 C-1.6947518 75.64790529 -1.70183718 79.10433897 -1.70283699 82.56110573 C-1.70701706 84.20799722 -1.71936151 85.85489068 -1.74035454 87.50165367 C-1.85621049 97.37876646 -1.75818789 106.43825291 5.3631134 114.11216736 C10.57253872 118.71629074 14.71041196 119.78010488 21.52032471 119.77154541 C22.28834412 119.77826263 23.05636353 119.78497986 23.84765625 119.79190063 C26.38477059 119.81088533 28.92162032 119.81480543 31.45880127 119.81695557 C33.22754016 119.82338456 34.99627798 119.830113 36.76501465 119.83712769 C40.47384098 119.84910261 44.18257416 119.85280843 47.89141846 119.85162354 C52.63036356 119.85142065 57.3687069 119.8786899 62.10750961 119.91316795 C65.76223459 119.93547429 69.4168158 119.93945989 73.07160187 119.93840408 C74.81781329 119.94075568 76.56402895 119.94955428 78.31017303 119.96506882 C80.76085202 119.98479939 83.21024736 119.97886335 85.66094971 119.96685791 C86.3739624 119.97809692 87.0869751 119.98933594 87.82159424 120.00091553 C94.07831953 119.92354013 99.42125624 117.8815429 103.90802002 113.44586182 C104.36305908 112.77683838 104.81809814 112.10781494 105.28692627 111.41851807 C105.99655518 110.41111572 105.99655518 110.41111572 106.72052002 109.38336182 C109.12175033 105.33699794 109.01553592 101.47631629 109.04229736 96.92364502 C109.05047485 96.15577164 109.05865234 95.38789825 109.06707764 94.59675598 C109.09189822 92.05427828 109.10844109 89.51185639 109.12286377 86.96929932 C109.13084929 85.66449647 109.13084929 85.66449647 109.13899612 84.33333397 C109.16571611 79.72705339 109.18509272 75.12079978 109.19952393 70.51446533 C109.2128509 66.70920712 109.24068186 62.9044867 109.28155518 59.09942627 C109.33097101 54.4988002 109.35565612 49.89866111 109.36275101 45.29778099 C109.36944836 43.54874544 109.38463087 41.79972011 109.40864182 40.05083656 C109.77862133 27.35032029 109.77862133 27.35032029 103.84942627 16.48101807 C96.72170206 9.35329385 88.34294068 9.09183075 78.86578369 9.06417847 C77.29782842 9.06954885 75.72987565 9.07570197 74.16192627 9.08258057 C72.5334256 9.08055641 70.90492581 9.07764213 69.27642822 9.07388306 C65.87391475 9.06947578 62.47163858 9.07583899 59.06915283 9.08990479 C54.72497159 9.10699585 50.38134654 9.09714605 46.03718567 9.07918739 C42.67754994 9.06830619 39.31804436 9.07181569 35.95840454 9.07957077 C34.35734998 9.08156081 32.75628331 9.07915588 31.15524292 9.07213211 C17.91473114 8.74481572 17.91473114 8.74481572 6.38848877 14.56695557 Z " fill="#E4E0CC" transform="translate(68.15057373046875,78.51898193359375)"/>
<path d="M0 0 C66.99 0 133.98 0 203 0 C203 5.94 203 11.88 203 18 C199.73469438 21.26530562 198.88672342 21.35123035 194.49681187 21.40123022 C193.74497088 21.39453805 192.9931299 21.38784589 192.21850586 21.38095093 C191.0172716 21.38797089 191.0172716 21.38797089 189.79176998 21.39513266 C187.09929445 21.40713093 184.40732337 21.39760671 181.71484375 21.38818359 C179.78825584 21.39224715 177.86167026 21.39758781 175.93508911 21.40411377 C170.69550515 21.41781883 165.45609792 21.41247556 160.21651077 21.40297651 C154.74060835 21.39539642 149.26472136 21.40242092 143.78881836 21.40713501 C134.59193192 21.41259738 125.39511768 21.40538831 116.19824219 21.39111328 C105.55600288 21.37478587 94.91393598 21.38007404 84.27170086 21.3965925 C75.14469009 21.41019364 66.01773131 21.41213374 56.89071369 21.40427649 C51.43507879 21.39959242 45.979525 21.39899524 40.52389526 21.40888596 C35.39555643 21.4175334 30.2674405 21.41157445 25.13912582 21.39420319 C23.25369513 21.39022644 21.36824576 21.39139259 19.48282242 21.39799118 C16.9154572 21.40614998 14.34881301 21.39595422 11.78149414 21.38095093 C11.02965316 21.38764309 10.27781218 21.39433526 9.50318813 21.40123022 C4.47303308 21.34393815 4.47303308 21.34393815 2.07615662 19.60119057 C-2.38842337 12.95843685 0 11.76816658 0 0 Z " fill="#E3DFCB" transform="translate(58,212)"/>
<path d="M0 0 C0.70657745 -0.00671722 1.41315491 -0.01343445 2.1411438 -0.02035522 C4.46298376 -0.03925733 6.78453333 -0.04325574 9.10644531 -0.04541016 C10.73301305 -0.05184462 12.35957965 -0.05857346 13.98614502 -0.06558228 C17.39215779 -0.07753639 20.7980693 -0.08126514 24.20410156 -0.08007812 C28.54597984 -0.0798753 32.88720092 -0.10714765 37.2289238 -0.14162254 C40.58863239 -0.16397963 43.94818518 -0.16791295 47.30796051 -0.16685867 C48.90738433 -0.16920254 50.50681324 -0.17795685 52.10616302 -0.19352341 C71.64479064 -0.36585853 71.64479064 -0.36585853 78.61053467 6.06997681 C83.49825228 11.41265452 84.98419661 15.72229749 84.97509766 22.96142578 C84.98181488 23.72944519 84.9885321 24.4974646 84.99545288 25.28875732 C85.01443757 27.82587167 85.01835768 30.3627214 85.02050781 32.89990234 C85.0269368 34.66864123 85.03366524 36.43737906 85.04067993 38.20611572 C85.05265486 41.91494205 85.05636067 45.62367524 85.05517578 49.33251953 C85.0549729 54.07146463 85.08224214 58.80980797 85.1167202 63.54861069 C85.13902654 67.20333567 85.14301214 70.85791687 85.14195633 74.51270294 C85.14430793 76.25891437 85.15310653 78.00513002 85.16862106 79.75127411 C85.18835163 82.20195309 85.1824156 84.65134843 85.17041016 87.10205078 C85.18164917 87.81506348 85.19288818 88.52807617 85.20446777 89.26269531 C85.13122616 95.18515436 83.33691889 100.40897593 79.27264977 104.82445908 C73.83632606 109.60328669 68.94708424 110.59039586 61.90014648 110.59692383 C61.13198105 110.60524734 60.36381561 110.61357086 59.57237244 110.62214661 C57.04070926 110.64618038 54.50930411 110.6550108 51.97753906 110.66162109 C50.21022975 110.6705929 48.4429212 110.67971484 46.6756134 110.6889801 C42.97276975 110.70545496 39.27001635 110.71316739 35.56713867 110.71606445 C30.83595191 110.72144484 26.10562031 110.75911676 21.3746748 110.80480862 C17.72423754 110.83463821 14.0740047 110.8417893 10.42345619 110.8427906 C8.68001707 110.84698167 6.93657672 110.85937108 5.19325829 110.88030815 C-11.65667203 111.06655852 -11.65667203 111.06655852 -18.31542969 105.29052734 C-23.92029806 99.53417604 -25.68706261 93.50944957 -25.71948242 85.64624023 C-25.72634567 84.91679703 -25.73320892 84.18735382 -25.74028015 83.43580627 C-25.75845536 81.04472928 -25.75472419 78.65431427 -25.74902344 76.26318359 C-25.75358972 74.58841237 -25.75889662 72.91364301 -25.76490784 71.23887634 C-25.77382071 67.73624031 -25.77143672 64.2338325 -25.76147461 60.73120117 C-25.74998732 56.25797024 -25.77020161 51.78552902 -25.79939175 47.31240177 C-25.81779884 43.85582025 -25.81745235 40.39942642 -25.81175423 36.94280815 C-25.81160156 35.29429453 -25.8176003 33.64576775 -25.8300457 31.9973011 C-25.94246544 14.66688062 -25.94246544 14.66688062 -19.38574219 7.04833984 C-18.74378906 6.50951172 -18.10183594 5.97068359 -17.44042969 5.41552734 C-16.80363281 4.86123047 -16.16683594 4.30693359 -15.51074219 3.73583984 C-10.59645388 0.5004543 -5.7775979 0.03465149 0 0 Z M-17.16517639 13.56349182 C-18.63554436 17.04945939 -18.74333814 20.20320538 -18.71948242 23.9230957 C-18.72634567 24.67496658 -18.73320892 25.42683746 -18.74028015 26.20149231 C-18.75852745 28.67797931 -18.75471372 31.15383152 -18.74902344 33.63037109 C-18.75358633 35.3576325 -18.75889222 37.08489209 -18.76490784 38.81214905 C-18.77383492 42.42928449 -18.77142055 46.04619911 -18.76147461 49.66333008 C-18.74998678 54.29150403 -18.77019526 58.91891479 -18.79939175 63.54698849 C-18.8177659 67.11329465 -18.81745887 70.67941834 -18.81175423 74.24575996 C-18.81160115 75.95174797 -18.81763401 77.65774846 -18.8300457 79.36369133 C-18.84497699 81.75246486 -18.8342643 84.13983392 -18.81713867 86.52856445 C-18.82680664 87.22849518 -18.83647461 87.9284259 -18.84643555 88.64956665 C-18.77144533 93.66200795 -17.53915001 96.48739244 -14.31542969 100.29052734 C-9.78847253 104.11057026 -6.61535113 104.79149762 -0.75292969 104.79223633 C-0.02041992 104.79763931 0.71208984 104.8030423 1.46679688 104.80860901 C3.87314031 104.82105279 6.27827699 104.80463557 8.68457031 104.78662109 C10.36556053 104.78677618 12.04655111 104.78826683 13.72753906 104.79103088 C17.24462764 104.79241292 20.76130745 104.77988983 24.27832031 104.75708008 C28.77747189 104.72869587 33.27594468 104.7314353 37.77514648 104.74417019 C41.2445247 104.75113854 44.71374715 104.74332493 48.18310547 104.73091316 C49.84162803 104.72640988 51.50016738 104.72605202 53.15869141 104.72997856 C55.48016406 104.73290221 57.80071448 104.71633002 60.12207031 104.69458008 C61.44078125 104.68917709 62.75949219 104.68377411 64.11816406 104.6782074 C69.24650361 104.12074007 72.50212818 102.56884316 75.99707031 98.79052734 C78.82387865 94.60266314 78.84258746 90.94343288 78.86157227 86.06860352 C78.86814346 85.33653183 78.87471466 84.60446014 78.88148499 83.85020447 C78.9011924 81.42796727 78.91287464 79.00579199 78.92285156 76.58349609 C78.92896485 75.34114417 78.92896485 75.34114417 78.93520164 74.07369423 C78.95605116 69.69016393 78.97035789 65.30666484 78.97973633 60.9230957 C78.99080045 56.40030439 79.02520329 51.8780051 79.06490803 47.35538769 C79.09107686 43.87318519 79.09942837 40.39109993 79.10301781 36.90880775 C79.10788283 35.24187203 79.11949451 33.57494152 79.1380558 31.90810204 C79.16245467 29.57188487 79.16148153 27.23694085 79.15454102 24.90063477 C79.16735107 24.21626343 79.18016113 23.53189209 79.19335938 22.82678223 C79.13967595 17.85267592 77.87537094 15.0645531 74.68457031 11.29052734 C70.22911733 7.51682277 66.62552903 6.70701238 60.93847656 6.77294922 C60.18645966 6.76593994 59.43444275 6.75893066 58.65963745 6.75170898 C56.18839953 6.73418851 53.71831868 6.74572971 51.24707031 6.75927734 C49.52123801 6.7565807 47.7954072 6.75269684 46.06958008 6.74768066 C42.45834847 6.7417937 38.84751351 6.75032248 35.23632812 6.76904297 C30.61599656 6.79183229 25.99659449 6.77870487 21.376297 6.75475311 C17.81426029 6.74027329 14.25244261 6.74491108 10.69039917 6.75526428 C8.98721201 6.75792554 7.28400472 6.75468298 5.58084106 6.74534607 C3.1969158 6.73514405 0.81447895 6.75073054 -1.56933594 6.77294922 C-2.26769562 6.76485229 -2.9660553 6.75675537 -3.68557739 6.74841309 C-9.72144862 6.85221298 -13.38667621 8.92047953 -17.16517639 13.56349182 Z " fill="#0C0907" transform="translate(92.3154296875,87.70947265625)"/>
<path d="M0 0 C2.31 0 4.62 0 7 0 C7 2.64 7 5.28 7 8 C8.32 8 9.64 8 11 8 C11 10.31 11 12.62 11 15 C9.68 15 8.36 15 7 15 C7 26.22 7 37.44 7 49 C4.69 49 2.38 49 0 49 C0 38.11 0 27.22 0 16 C-1.32 16 -2.64 16 -4 16 C-4 13.36 -4 10.72 -4 8 C-2.68 8 -1.36 8 0 8 C0 5.36 0 2.72 0 0 Z " fill="#0B0B0A" transform="translate(234,143)"/>
<path d="M0 0 C2.31 0 4.62 0 7 0 C7 8.58 7 17.16 7 26 C8.32 26 9.64 26 11 26 C11 28.31 11 30.62 11 33 C9.68 33 8.36 33 7 33 C7 38.28 7 43.56 7 49 C4.69 49 2.38 49 0 49 C0 43.72 0 38.44 0 33 C-1.32 33 -2.64 33 -4 33 C-4 30.69 -4 28.38 -4 26 C-2.68 26 -1.36 26 0 26 C0 17.42 0 8.84 0 0 Z " fill="#080807" transform="translate(212,143)"/>
<path d="M0 0 C12.21 0 24.42 0 37 0 C37 2.31 37 4.62 37 7 C24.79 7 12.58 7 0 7 C0 4.69 0 2.38 0 0 Z " fill="#171715" transform="translate(208,88)"/>
<path d="M0 0 C1.98 0 3.96 0 6 0 C6 1.65 6 3.3 6 5 C4.35 5 2.7 5 1 5 C1 6.65 1 8.3 1 10 C-12.53 10 -26.06 10 -40 10 C-40 8.35 -40 6.7 -40 5 C-26.8 5 -13.6 5 0 5 C0 3.35 0 1.7 0 0 Z " fill="#FFD13E" transform="translate(142,159)"/>
<path d="M0 0 C3.63 0 7.26 0 11 0 C11 6.6 11 13.2 11 20 C7.37 20 3.74 20 0 20 C0 13.4 0 6.8 0 0 Z " fill="#FFC83E" transform="translate(132,124)"/>
<path d="M0 0 C11.88 0 23.76 0 36 0 C36 1.98 36 3.96 36 6 C24.12 6 12.24 6 0 6 C0 4.02 0 2.04 0 0 Z " fill="#000000" transform="translate(209,114)"/>
<path d="M0 0 C11.88 0 23.76 0 36 0 C36 1.98 36 3.96 36 6 C24.12 6 12.24 6 0 6 C0 4.02 0 2.04 0 0 Z " fill="#000000" transform="translate(209,101)"/>
<path d="M0 0 C3.3 0 6.6 0 10 0 C10 6.6 10 13.2 10 20 C6.7 20 3.4 20 0 20 C0 13.4 0 6.8 0 0 Z " fill="#FFD03E" transform="translate(102,124)"/>
<path d="M0 0 C5.94 0 11.88 0 18 0 C18 1.98 18 3.96 18 6 C12.06 6 6.12 6 0 6 C0 4.02 0 2.04 0 0 Z " fill="#000000" transform="translate(67,220)"/>
<path d="M0 0 C1.98 0 3.96 0 6 0 C6 1.65 6 3.3 6 5 C4.35 5 2.7 5 1 5 C1 6.65 1 8.3 1 10 C0.505 8.02 0.505 8.02 0 6 C-13.2 6 -26.4 6 -40 6 C-40 5.67 -40 5.34 -40 5 C-26.8 5 -13.6 5 0 5 C0 3.35 0 1.7 0 0 Z " fill="#FFAF3E" transform="translate(142,159)"/>
<path d="M0 0 C1.65 0 3.3 0 5 0 C5 1.65 5 3.3 5 5 C3.35 5 1.7 5 0 5 C0 3.35 0 1.7 0 0 Z " fill="#FFC93E" transform="translate(143,159)"/>
<path d="M0 0 C1.65 0 3.3 0 5 0 C5 1.65 5 3.3 5 5 C3.35 5 1.7 5 0 5 C0 3.35 0 1.7 0 0 Z " fill="#FFCF3E" transform="translate(97,159)"/>
<path d="M0 0 C1.65 0 3.3 0 5 0 C5 1.65 5 3.3 5 5 C3.35 5 1.7 5 0 5 C0 3.35 0 1.7 0 0 Z " fill="#FFC93E" transform="translate(148,154)"/>
<path d="M0 0 C1.65 0 3.3 0 5 0 C5 1.65 5 3.3 5 5 C3.35 5 1.7 5 0 5 C0 3.35 0 1.7 0 0 Z " fill="#FFCF3E" transform="translate(92,154)"/>
</svg>
