<?xml version="1.0" encoding="UTF-8"?>
<svg version="1.1" xmlns="http://www.w3.org/2000/svg" width="200" height="200">
<path d="M0 0 C66 0 132 0 200 0 C200 66 200 132 200 200 C134 200 68 200 0 200 C0 134 0 68 0 0 Z " fill="#000000" transform="translate(0,0)"/>
<path d="M0 0 C0 22.77 0 45.54 0 69 C-11.55 69 -23.1 69 -35 69 C-39.1236752 39.16399711 -39.1236752 39.16399711 -31.67919922 29.00537109 C-7.82408652 0 -7.82408652 0 0 0 Z " fill="#FEFEFE" transform="translate(82,83)"/>
<path d="M0 0 C0 11.55 0 23.1 0 35 C-22.77 35 -45.54 35 -69 35 C-67.02 32.69 -65.04 30.38 -63 28 C-61.64825303 26.31285624 -60.29650781 24.62571104 -58.94508362 22.93830872 C-40.43569123 0.25650205 -29.56237528 -3.28470836 0 0 Z " fill="#FEFEFE" transform="translate(152,47)"/>
<path d="M0 0 C11.55 0 23.1 0 35 0 C35 11.55 35 23.1 35 35 C23.45 35 11.9 35 0 35 C0 23.45 0 11.9 0 0 Z " fill="#FEFEFE" transform="translate(117,117)"/>
<path d="M0 0 C11.55 0 23.1 0 35 0 C35 11.55 35 23.1 35 35 C23.45 35 11.9 35 0 35 C0 23.45 0 11.9 0 0 Z " fill="#FEFEFE" transform="translate(47,47)"/>
<path d="M0 0 C0.33 0 0.66 0 1 0 C1.33 11.22 1.66 22.44 2 34 C35.66 34.495 35.66 34.495 70 35 C70 35.33 70 35.66 70 36 C47.23 36 24.46 36 1 36 C1 58.77 1 81.54 1 105 C0.67 105 0.34 105 0 105 C-0.33 82.56 -0.66 60.12 -1 37 C-12.22 36.67 -23.44 36.34 -35 36 C-35 35.67 -35 35.34 -35 35 C-23.45 35 -11.9 35 0 35 C0 23.45 0 11.9 0 0 Z " fill="#202122" transform="translate(82,47)"/>
</svg>
