<?xml version="1.0" encoding="UTF-8"?>
<svg version="1.1" xmlns="http://www.w3.org/2000/svg" width="250" height="250">
<path d="M0 0 C2.53651155 1.96790651 5.01885208 3.99300234 7.48535156 6.04785156 C8.00589111 6.47050293 8.52643066 6.8931543 9.06274414 7.32861328 C13.41334119 10.88201573 16.89227865 14.75816247 20.48535156 19.04785156 C21.19949219 19.87414063 21.91363281 20.70042969 22.64941406 21.55175781 C45.76927209 48.84272424 53.6997362 80.99613719 51.48535156 116.04785156 C49.12033863 138.54723213 40.27010083 161.8042995 25.48535156 179.04785156 C24.41994141 180.40136719 24.41994141 180.40136719 23.33300781 181.78222656 C18.78980661 187.52918193 14.15456468 192.43119455 8.48535156 197.04785156 C7.72222656 197.73234375 6.95910156 198.41683594 6.17285156 199.12207031 C-19.76543889 221.77853438 -53.93495131 228.96149722 -87.51464844 227.04785156 C-112.37297521 224.49113557 -135.44342459 213.93615392 -154.51464844 198.04785156 C-155.03518799 197.6252002 -155.55572754 197.20254883 -156.09204102 196.76708984 C-160.44263806 193.2136874 -163.92157552 189.33754066 -167.51464844 185.04785156 C-168.58585937 183.80841797 -168.58585937 183.80841797 -169.67871094 182.54394531 C-192.79856896 155.25297888 -200.72903308 123.09956593 -198.51464844 88.04785156 C-196.1496355 65.548471 -187.29939771 42.29140363 -172.51464844 25.04785156 C-171.804375 24.14550781 -171.09410156 23.24316406 -170.36230469 22.31347656 C-165.81910349 16.5665212 -161.18386156 11.66450857 -155.51464844 7.04785156 C-154.75152344 6.36335938 -153.98839844 5.67886719 -153.20214844 4.97363281 C-111.61653463 -31.35038656 -43.95603638 -32.98523106 0 0 Z " fill="#FDFDFD" transform="translate(198.5146484375,22.9521484375)"/>
<path d="M0 0 C17.82 0 35.64 0 54 0 C54.33 17.16 54.66 34.32 55 52 C58.11566406 48.24625 61.23132813 44.4925 64.44140625 40.625 C68.73069687 35.6710359 73.11480045 30.81205108 77.5625 26 C78.13303604 25.38238297 78.70357208 24.76476593 79.29139709 24.12843323 C93.22361434 9.18440432 105.17156511 -2.17887818 126.18086243 -3.70623779 C138.25112977 -3.92729362 150.04265205 -1.60253117 162 0 C162 17.82 162 35.64 162 54 C126.36 54 90.72 54 54 54 C54 89.64 54 125.28 54 162 C36.18 162 18.36 162 0 162 C-6.25789964 114.26817724 -6.25789964 114.26817724 4.98925781 99.421875 C17.5395516 83.73192119 33.41401526 70.44751406 48.94358826 57.80656433 C51.07596003 56.16207901 51.07596003 56.16207901 52 54 C34.84 54 17.68 54 0 54 C0 36.18 0 18.36 0 0 Z " fill="#000000" transform="translate(45,46)"/>
<path d="M0 0 C0 17.16 0 34.32 0 52 C-33.99 52 -67.98 52 -103 52 C-101.02 49.69 -99.04 47.38 -97 45 C-95.66492556 43.36313962 -94.33547276 41.72166871 -93.01318359 40.07446289 C-87.9793149 33.90519658 -82.76134871 27.92415579 -77.375 22.0625 C-76.89337528 21.53775211 -76.41175056 21.01300423 -75.91553116 20.47235489 C-52.64978628 -4.62419256 -34.69289949 -4.20803363 0 0 Z " fill="#000000" transform="translate(206,47)"/>
<path d="M0 0 C17.49 0 34.98 0 53 0 C53 17.49 53 34.98 53 53 C35.51 53 18.02 53 0 53 C0 35.51 0 18.02 0 0 Z " fill="#010101" transform="translate(153,154)"/>
<path d="M0 0 C17.49 0 34.98 0 53 0 C53 17.49 53 34.98 53 53 C35.51 53 18.02 53 0 53 C0 35.51 0 18.02 0 0 Z " fill="#010101" transform="translate(45,47)"/>
<path d="M0 0 C17.82 0 35.64 0 54 0 C54.33 17.16 54.66 34.32 55 52 C58.11566406 48.24625 61.23132813 44.4925 64.44140625 40.625 C68.73069687 35.6710359 73.11480045 30.81205108 77.5625 26 C78.13303604 25.38238297 78.70357208 24.76476593 79.29139709 24.12843323 C93.22361434 9.18440432 105.17156511 -2.17887818 126.18086243 -3.70623779 C138.25112977 -3.92729362 150.04265205 -1.60253117 162 0 C162 17.82 162 35.64 162 54 C126.36 54 90.72 54 54 54 C54 89.64 54 125.28 54 162 C36.18 162 18.36 162 0 162 C0 161.67 0 161.34 0 161 C17.49 161 34.98 161 53 161 C52.91621094 153.89082031 52.83242187 146.78164062 52.74609375 139.45703125 C52.69509491 134.82227157 52.64457838 130.18751577 52.59570312 125.55273438 C52.51889275 118.27297109 52.44075158 110.99324952 52.35180664 103.71362305 C51.93567796 69.44361675 52.21257931 35.26738186 53 1 C35.51 1 18.02 1 0 1 C0 0.67 0 0.34 0 0 Z M80.25 26.4375 C79.68466427 27.04531437 79.11932854 27.65312874 78.53686142 28.27936172 C66.0681776 39.77895473 66.0681776 39.77895473 58 53 C91.99 53 125.98 53 161 53 C161 35.84 161 18.68 161 1 C121.35616103 -4.53927613 106.20168682 -1.50824499 80.25 26.4375 Z " fill="#4F5055" transform="translate(45,46)"/>
<path d="M0 0 C-1.50751445 3.71941793 -3.63023559 5.61771788 -6.70922852 8.14282227 C-7.68666016 8.96073242 -8.6640918 9.77864258 -9.67114258 10.62133789 C-10.19374664 11.05809845 -10.71635071 11.49485901 -11.25479126 11.94485474 C-41.31171954 36.28304426 -41.31171954 36.28304426 -54.76745605 70.82897949 C-55.19592109 81.98871708 -53.26764605 92.90036747 -52 104 C-34.84 104 -17.68 104 0 104 C0 104.33 0 104.66 0 105 C-17.49 105 -34.98 105 -53 105 C-59.25012452 58.30789332 -59.25012452 58.30789332 -48.02685547 43.43701172 C-41.87898743 35.71482558 -34.84901966 28.8285033 -27.625 22.125 C-27.01921993 21.5613763 -26.41343987 20.99775261 -25.78930283 20.41704941 C-3.73242922 0 -3.73242922 0 0 0 Z " fill="#1D1E20" transform="translate(98,102)"/>
</svg>
