<?xml version="1.0" encoding="UTF-8"?>
<svg version="1.1" xmlns="http://www.w3.org/2000/svg" width="200" height="200">
<path d="M0 0 C66 0 132 0 200 0 C200 66 200 132 200 200 C134 200 68 200 0 200 C0 134 0 68 0 0 Z " fill="#68BB89" transform="translate(0,0)"/>
<path d="M0 0 C66 0 132 0 200 0 C200 66 200 132 200 200 C134 200 68 200 0 200 C0 134 0 68 0 0 Z M70 19 C68.75476563 19.45052734 68.75476563 19.45052734 67.484375 19.91015625 C46.57554912 28.35410516 30.67840781 45.23469589 20.8125 65.125 C11.35673364 88.31918922 11.70709548 112.0181864 21.20703125 135.109375 C31.73831962 158.93990457 50.97651457 173.17625404 74.5390625 182.3828125 C90.12199311 187.41296843 109.43656485 186.92842113 125 182 C126.60101563 181.50693359 126.60101563 181.50693359 128.234375 181.00390625 C150.14147724 173.43075727 167.04825785 157.06214651 177.19433594 136.45507812 C186.31771121 116.78079846 188.65035785 93.67268166 181.28369141 72.98876953 C172.52677686 50.10467792 157.64827835 32.67674055 135.4140625 22.0703125 C134.61742187 21.71710937 133.82078125 21.36390625 133 21 C131.33710938 20.24396484 131.33710938 20.24396484 129.640625 19.47265625 C111.68500344 12.20949173 88.0456043 12.24458596 70 19 Z " fill="#5FB886" transform="translate(0,0)"/>
<path d="M0 0 C66 0 132 0 200 0 C200 66 200 132 200 200 C169.97 200 139.94 200 109 200 C109 199.67 109 199.34 109 199 C110.77890625 198.67128906 110.77890625 198.67128906 112.59375 198.3359375 C133.6301284 194.28694843 150.66131479 187.31005651 167 173 C167.74765625 172.34773437 168.4953125 171.69546875 169.265625 171.0234375 C185.95833084 155.43968764 197.09774042 131.30084049 198.109375 108.5390625 C198.95246532 79.11521046 191.86403967 54.06504129 172 32 C158.81809682 18.19777196 140.94503445 7.32369025 122 4 C121.505 3.505 121.505 3.505 121 3 C93.36219004 -1.65655222 65.81040432 2.66098639 42.80078125 18.9140625 C41.87652344 19.60242188 40.95226563 20.29078125 40 21 C39.06542969 21.68835938 38.13085938 22.37671875 37.16796875 23.0859375 C15.93625517 39.53680368 5.18998231 62.9677951 1 89 C0.67 89 0.34 89 0 89 C0 59.63 0 30.26 0 0 Z " fill="#FDFEFD" transform="translate(0,0)"/>
<path d="M0 0 C18.58508453 13.78980762 31.30275358 33.20909688 35.2265625 56.19140625 C38.12711499 80.49603577 32.67014762 103.23933352 17.8671875 122.86328125 C6.77683394 136.85723679 -7.29831262 146.61933505 -24.3203125 151.98828125 C-25.32707031 152.30796875 -26.33382812 152.62765625 -27.37109375 152.95703125 C-50.74532042 159.12166246 -74.61021067 154.85592861 -95.3203125 142.98828125 C-98.90092891 140.55327657 -102.10969615 137.88609858 -105.3203125 134.98828125 C-106.0009375 134.44816406 -106.6815625 133.90804687 -107.3828125 133.3515625 C-123.30449214 120.50848889 -132.96645888 99.16983597 -135.14599609 78.99804688 C-137.2373663 54.88577866 -130.37418765 32.56294888 -114.87109375 13.87890625 C-85.29204539 -19.64099541 -36.94863009 -24.72378661 0 0 Z M-108.828125 18.12109375 C-116.01367494 26.38785497 -121.14651059 35.49158787 -124.3203125 45.98828125 C-124.58561768 46.80852783 -124.85092285 47.62877441 -125.12426758 48.47387695 C-127.28042049 55.58234846 -127.74630905 62.08830624 -127.6328125 69.48828125 C-127.63603516 70.53886719 -127.63925781 71.58945313 -127.64257812 72.671875 C-127.57487662 82.63015073 -126.34632514 91.88223099 -122.1953125 100.98828125 C-121.89109375 101.66761719 -121.586875 102.34695312 -121.2734375 103.046875 C-118.37233914 109.28541578 -114.68060109 114.66872917 -110.3203125 119.98828125 C-109.77890625 120.69210938 -109.2375 121.3959375 -108.6796875 122.12109375 C-97.69747552 135.71557945 -79.64158392 145.76141735 -62.3203125 147.98828125 C-39.57350613 149.8363329 -18.62424734 145.96761368 -0.3828125 131.61328125 C14.61869626 118.43081772 26.67679461 100.20439285 28.51171875 79.8125 C29.8310708 57.62897602 25.54531316 37.29865171 10.6796875 19.98828125 C10.18339844 19.35019531 9.68710938 18.71210937 9.17578125 18.0546875 C1.06301038 8.02612978 -9.50855779 1.78315197 -21.3203125 -3.01171875 C-22.25875 -3.41390625 -23.1971875 -3.81609375 -24.1640625 -4.23046875 C-30.87508888 -6.93030695 -37.11636569 -7.79312933 -44.3203125 -8.01171875 C-45.21492188 -8.05167969 -46.10953125 -8.09164063 -47.03125 -8.1328125 C-71.5697923 -8.74447704 -91.89417365 0.76511246 -108.828125 18.12109375 Z " fill="#F8FCF9" transform="translate(149.3203125,30.01171875)"/>
<path d="M0 0 C0.33 0 0.66 0 1 0 C1.05945801 0.5576001 1.11891602 1.1152002 1.18017578 1.68969727 C2.56002856 14.05881955 4.64238175 24.72440036 10 36 C10.4021875 36.90878906 10.804375 37.81757813 11.21875 38.75390625 C20.50337152 58.79739663 36.8560531 72.87265608 56 83 C56.91652344 83.48597656 57.83304688 83.97195312 58.77734375 84.47265625 C68.52110714 89.26395043 79.27865335 91.61122453 90 93 C90 93.33 90 93.66 90 94 C60.3 94 30.6 94 0 94 C0 62.98 0 31.96 0 0 Z " fill="#FDFEFD" transform="translate(0,106)"/>
<path d="M0 0 C1.83935295 0.02805299 3.67881967 0.04936894 5.51832581 0.0643158 C10.31032668 0.12101137 15.09526984 0.26777356 19.88452148 0.43487549 C24.79118366 0.58962595 29.69901169 0.65710089 34.60742188 0.73242188 C44.20098199 0.89225794 53.78935268 1.14749314 63.37890625 1.46484375 C62.0061804 8.80022165 55.22940238 14.45236507 49.66401291 18.98543167 C43.13041587 23.21537969 35.21578682 22.26874677 27.7578125 21.9296875 C25.91845955 21.90163451 24.07899283 21.88031856 22.23948669 21.8653717 C17.44748582 21.80867613 12.66254266 21.66191394 7.87329102 21.49481201 C2.96662884 21.34006155 -1.94119919 21.27258661 -6.84960938 21.19726562 C-16.44316949 21.03742956 -26.03154018 20.78219436 -35.62109375 20.46484375 C-34.2483679 13.12946585 -27.47158988 7.47732243 -21.90620041 2.94425583 C-15.37260337 -1.28569219 -7.45797432 -0.33905927 0 0 Z " fill="#FDFEFD" transform="translate(85.62109375,118.53515625)"/>
<path d="M0 0 C10.54429607 -0.37303233 21.08698985 -0.65613905 31.63657379 -0.82899475 C36.53728997 -0.91202482 41.43344991 -1.02431342 46.33154297 -1.20703125 C82.39966402 -2.51851273 82.39966402 -2.51851273 91.62194824 5.64868164 C99 13.72314356 99 13.72314356 99 19 C88.45570393 19.37303233 77.91301015 19.65613905 67.36342621 19.82899475 C62.46271003 19.91202482 57.56655009 20.02431342 52.66845703 20.20703125 C16.60033598 21.51851273 16.60033598 21.51851273 7.37805176 13.35131836 C0 5.27685644 0 5.27685644 0 0 Z " fill="#FDFEFE" transform="translate(50,90)"/>
<path d="M0 0 C1.83935295 0.02805299 3.67881967 0.04936894 5.51832581 0.0643158 C10.31032668 0.12101137 15.09526984 0.26777356 19.88452148 0.43487549 C24.79118366 0.58962595 29.69901169 0.65710089 34.60742188 0.73242188 C44.20098199 0.89225794 53.78935268 1.14749314 63.37890625 1.46484375 C62.0061804 8.80022165 55.22940238 14.45236507 49.66401291 18.98543167 C43.13041587 23.21537969 35.21578682 22.26874677 27.7578125 21.9296875 C25.91845955 21.90163451 24.07899283 21.88031856 22.23948669 21.8653717 C17.44748582 21.80867613 12.66254266 21.66191394 7.87329102 21.49481201 C2.96662884 21.34006155 -1.94119919 21.27258661 -6.84960938 21.19726562 C-16.44316949 21.03742956 -26.03154018 20.78219436 -35.62109375 20.46484375 C-34.2483679 13.12946585 -27.47158988 7.47732243 -21.90620041 2.94425583 C-15.37260337 -1.28569219 -7.45797432 -0.33905927 0 0 Z " fill="#FEFEFE" transform="translate(85.62109375,59.53515625)"/>
</svg>
