<svg
  width="32"
  height="32"
  viewBox="0 0 32 32"
  fill="none"
  xmlns="http://www.w3.org/2000/svg"
>
  <rect width="32" height="32" rx="16" fill="#00074F" />
  <path
    d="M26.4694 8L18.5753 26H13.4247L5.5 8H10.834L15.9847 21.7063L21.166 8H26.4694ZM15.9847 15.1402C16.9615 15.1402 17.7525 14.3148 17.7525 13.2956C17.7525 12.2765 16.9615 11.4511 15.9847 11.4511C15.0079 11.4511 14.2169 12.2765 14.2169 13.2956C14.2169 14.3148 15.0079 15.1402 15.9847 15.1402ZM24.7322 18.6599C23.7554 18.6599 22.9643 19.4853 22.9643 20.5045C22.9643 21.5236 23.7554 22.349 24.7322 22.349C25.7089 22.349 26.5 21.5236 26.5 20.5045C26.5 19.4853 25.7089 18.6599 24.7322 18.6599Z"
    fill="#E8EDFF"
  />
</svg>
