<svg version="1.1" id="Layer_1" xmlns="http://www.w3.org/2000/svg" xmlns:xlink="http://www.w3.org/1999/xlink" x="0px" y="0px"
	 width="100%" viewBox="0 0 1182 1182" enable-background="new 0 0 1182 1182" xml:space="preserve">
<path fill="#282828" opacity="1.000000" stroke="none" 
	d="
M776.341125,1139.274902 
	C756.789368,1144.955811 737.737732,1151.086060 718.319031,1155.656616 
	C702.404480,1159.402466 686.106506,1161.687988 669.878784,1163.884033 
	C655.774231,1165.792847 641.554749,1167.296143 627.341797,1167.857300 
	C605.109253,1168.734863 582.818787,1169.392944 560.591980,1168.763184 
	C543.619690,1168.282471 526.625854,1166.244019 509.788330,1163.861328 
	C483.841949,1160.189575 458.258453,1154.594482 432.983948,1147.540039 
	C392.735962,1136.306274 354.392212,1120.356689 317.595245,1100.771484 
	C291.586060,1086.928223 266.570038,1071.323975 243.503799,1052.890747 
	C228.682617,1041.046509 214.142426,1028.821411 199.930923,1016.252930 
	C189.499542,1007.027588 179.294006,997.437439 169.891403,987.181396 
	C151.144379,966.732849 133.620651,945.292725 117.636490,922.512024 
	C97.677925,894.067139 80.710922,864.016663 66.002640,832.641113 
	C49.404724,797.234497 37.229294,760.236023 28.232967,722.246582 
	C24.615643,706.971436 22.236490,691.357239 20.120451,675.784973 
	C17.897484,659.425903 15.976655,642.965881 15.170326,626.489014 
	C14.131898,605.269348 13.609586,583.967712 14.235922,562.741821 
	C14.712206,546.600952 17.198244,530.508728 19.017092,514.420471 
	C22.772383,481.203705 29.809519,448.645172 40.657570,417.054169 
	C48.070366,395.467133 56.242725,374.093689 65.135460,353.073181 
	C78.454079,321.590790 95.657249,292.126617 115.113335,264.066864 
	C124.737556,250.186722 134.950714,236.617630 145.950699,223.812622 
	C160.672989,206.674545 175.747314,189.726059 191.922745,173.982803 
	C206.322311,159.968002 222.367325,147.634003 237.794205,134.686996 
	C257.465942,118.177513 278.936371,104.154839 301.225403,91.612999 
	C320.465607,80.786713 340.408447,71.084946 360.556732,62.035034 
	C377.552185,54.401302 394.971191,47.373291 412.775116,41.959629 
	C436.655670,34.698246 460.948761,28.618887 485.334167,23.257524 
	C500.233917,19.981676 515.647339,19.064302 530.815918,16.984865 
	C560.648010,12.895229 590.664673,13.615842 620.605225,14.235969 
	C636.572266,14.566677 652.486389,17.347610 668.429199,18.975309 
	C693.158813,21.500086 717.497070,26.385445 741.312866,33.208881 
	C763.248413,39.493618 785.037659,46.623753 806.247253,55.010384 
	C826.165955,62.886620 845.524231,72.341644 864.618896,82.100403 
	C889.553406,94.843719 913.282104,109.745468 935.350403,127.017220 
	C951.695129,139.809372 967.488953,153.322311 983.251892,166.836411 
	C1001.099182,182.137497 1016.743469,199.588058 1032.061768,217.393555 
	C1049.279907,237.407532 1064.888306,258.576385 1079.134155,280.739624 
	C1094.176147,304.141357 1107.672485,328.476166 1118.418213,354.143829 
	C1127.295288,375.348541 1136.063721,396.716309 1142.878174,418.634308 
	C1149.854614,441.073822 1155.140747,464.121216 1159.762451,487.183990 
	C1163.307373,504.872711 1164.692993,522.995850 1166.997803,540.931030 
	C1170.481201,568.035950 1169.180054,595.290527 1168.739990,622.454224 
	C1168.465088,639.415466 1166.253174,656.419373 1163.864868,673.255798 
	C1159.707397,702.564758 1153.307251,731.431335 1144.666382,759.784363 
	C1135.725342,789.122253 1124.522217,817.529419 1111.053589,845.099060 
	C1095.470093,876.997925 1077.505493,907.433899 1055.809448,935.525024 
	C1043.529663,951.424683 1030.575317,966.835510 1017.337158,981.951904 
	C1007.835938,992.801147 997.734253,1003.193237 987.240662,1013.089722 
	C968.091064,1031.149780 947.726379,1047.805298 926.182800,1062.968140 
	C903.295776,1079.076416 879.500366,1093.630371 854.491516,1106.300171 
	C829.298218,1119.063354 803.565735,1130.380981 776.341125,1139.274902 
M159.120087,561.643188 
	C154.862564,570.239624 150.059021,578.614380 146.459595,587.478088 
	C138.633408,606.750183 136.159836,627.153992 138.316727,647.605408 
	C140.416199,667.512268 147.204803,686.508423 154.026733,705.308899 
	C183.522415,786.595764 231.918884,854.499573 298.760773,909.294006 
	C345.312958,947.455750 397.688263,975.038635 455.048462,992.612793 
	C477.885864,999.609741 501.675354,1003.890808 525.296509,1007.810730 
	C543.290100,1010.796814 561.675537,1011.914551 579.935608,1012.652832 
	C595.995667,1013.302063 612.205017,1013.177368 628.199585,1011.738892 
	C645.707214,1010.164246 663.066345,1006.828918 680.450195,1004.013611 
	C709.239014,999.351013 736.955200,990.710876 763.941895,979.930359 
	C827.177368,954.669189 882.261292,917.261230 929.093140,867.742188 
	C956.480591,838.783142 980.265930,807.134155 998.836121,771.882629 
	C1008.782593,753.001343 1017.752747,733.484802 1025.552002,713.622131 
	C1036.790161,685.000977 1047.761475,656.031189 1043.968994,624.216797 
	C1042.939575,615.581482 1042.371826,606.751892 1040.077881,598.428833 
	C1023.694824,538.989014 970.925171,497.514069 907.540466,497.448242 
	C696.881592,497.229553 486.222351,497.318939 275.563446,497.510040 
	C265.557343,497.519104 255.367844,498.785858 245.580978,500.920959 
	C208.655701,508.976501 180.222168,529.569519 159.120087,561.643188 
z"/>
<path fill="#FF6702" opacity="1.000000" stroke="none" 
	d="
M159.315826,561.338257 
	C180.222168,529.569519 208.655701,508.976501 245.580978,500.920959 
	C255.367844,498.785858 265.557343,497.519104 275.563446,497.510040 
	C486.222351,497.318939 696.881592,497.229553 907.540466,497.448242 
	C970.925171,497.514069 1023.694824,538.989014 1040.077881,598.428833 
	C1042.371826,606.751892 1042.939575,615.581482 1043.968994,624.216797 
	C1047.761475,656.031189 1036.790161,685.000977 1025.552002,713.622131 
	C1017.752747,733.484802 1008.782593,753.001343 998.836121,771.882629 
	C980.265930,807.134155 956.480591,838.783142 929.093140,867.742188 
	C882.261292,917.261230 827.177368,954.669189 763.941895,979.930359 
	C736.955200,990.710876 709.239014,999.351013 680.450195,1004.013611 
	C663.066345,1006.828918 645.707214,1010.164246 628.199585,1011.738892 
	C612.205017,1013.177368 595.995667,1013.302063 579.935608,1012.652832 
	C561.675537,1011.914551 543.290100,1010.796814 525.296509,1007.810730 
	C501.675354,1003.890808 477.885864,999.609741 455.048462,992.612793 
	C397.688263,975.038635 345.312958,947.455750 298.760773,909.294006 
	C231.918884,854.499573 183.522415,786.595764 154.026733,705.308899 
	C147.204803,686.508423 140.416199,667.512268 138.316727,647.605408 
	C136.159836,627.153992 138.633408,606.750183 146.459595,587.478088 
	C150.059021,578.614380 154.862564,570.239624 159.315826,561.338257 
M644.888000,890.381592 
	C651.053223,900.546326 659.979858,904.968201 670.381042,902.654602 
	C711.363037,893.538513 749.584839,877.740601 785.235413,855.529297 
	C798.927002,846.998962 800.966919,829.558105 789.465759,818.057373 
	C747.405823,775.998962 705.298035,733.988037 663.357361,691.811035 
	C659.035706,687.465027 654.148254,687.034973 649.203125,688.524658 
	C643.968140,690.101685 642.436279,694.977295 642.157288,700.113098 
	C642.112183,700.943848 642.145752,701.778931 642.145752,702.612000 
	C642.145508,760.759827 642.096130,818.907776 642.248352,877.055237 
	C642.259399,881.273254 643.737000,885.487549 644.888000,890.381592 
M540.854309,874.418152 
	C540.854309,819.453369 540.858276,764.488647 540.845642,709.523865 
	C540.844788,705.694397 540.900513,701.851257 540.612732,698.038452 
	C540.140259,691.778320 535.973633,688.373901 529.902161,687.890869 
	C524.968384,687.498230 521.799988,689.730774 518.603760,692.933899 
	C477.426666,734.199707 436.185028,775.400940 394.985046,816.643921 
	C393.228699,818.402100 391.523865,820.273193 390.126617,822.318237 
	C383.020782,832.718140 384.908875,846.578003 395.317841,853.612122 
	C413.659302,866.006836 433.174316,876.506042 453.973969,884.086121 
	C472.339935,890.779236 491.191010,896.146118 509.850830,902.025940 
	C517.642395,904.481140 524.965576,903.345154 531.514954,898.396240 
	C539.165588,892.615234 541.318359,884.510193 540.854309,874.418152 
M747.351501,632.148499 
	C785.045654,669.842590 822.912720,707.366089 860.343689,745.319763 
	C874.122803,759.291260 891.244019,754.102966 899.299744,741.000671 
	C917.703979,711.067017 931.973938,679.409973 941.540405,645.613098 
	C943.963928,637.051147 943.981689,628.506348 940.299744,620.385620 
	C933.970947,606.427246 922.530762,599.210266 907.533508,599.125610 
	C852.563049,598.815308 797.589783,598.991821 742.617615,599.013611 
	C736.539490,599.015991 732.894531,602.445862 730.652222,607.812134 
	C728.672363,612.550049 731.480469,615.844055 734.194397,618.869141 
	C738.193176,623.326538 742.611633,627.407410 747.351501,632.148499 
M397.648590,670.148560 
	C414.383545,653.413574 431.165283,636.724731 447.788239,619.879272 
	C449.651001,617.991516 451.482941,615.339417 451.839081,612.830322 
	C453.150269,603.592346 448.798004,599.105042 437.809753,599.072632 
	C383.810547,598.913269 329.810364,598.903931 275.811066,599.044983 
	C251.489960,599.108521 234.905304,621.057983 241.283890,644.456177 
	C250.709641,679.032104 265.174072,711.405945 284.375824,741.649170 
	C293.844543,756.562622 309.622253,758.155518 322.192200,745.598022 
	C347.188751,720.626038 372.164368,695.632996 397.648590,670.148560 
M650.027954,598.577026 
	C651.864319,589.288147 650.457092,580.139221 647.441589,571.476929 
	C639.539673,548.778015 619.498840,533.175659 593.896301,531.965698 
	C552.379761,530.003784 522.553345,571.212646 534.770935,609.104187 
	C544.044128,637.864014 577.077881,658.669189 609.461304,648.019043 
	C630.736572,641.022034 648.680908,620.228149 650.027954,598.577026 
z"/>
<path fill="#282828" opacity="1.000000" stroke="none" 
	d="
M644.710327,890.042603 
	C643.737000,885.487549 642.259399,881.273254 642.248352,877.055237 
	C642.096130,818.907776 642.145508,760.759827 642.145752,702.612000 
	C642.145752,701.778931 642.112183,700.943848 642.157288,700.113098 
	C642.436279,694.977295 643.968140,690.101685 649.203125,688.524658 
	C654.148254,687.034973 659.035706,687.465027 663.357361,691.811035 
	C705.298035,733.988037 747.405823,775.998962 789.465759,818.057373 
	C800.966919,829.558105 798.927002,846.998962 785.235413,855.529297 
	C749.584839,877.740601 711.363037,893.538513 670.381042,902.654602 
	C659.979858,904.968201 651.053223,900.546326 644.710327,890.042603 
z"/>
<path fill="#282828" opacity="1.000000" stroke="none" 
	d="
M540.854248,874.902954 
	C541.318359,884.510193 539.165588,892.615234 531.514954,898.396240 
	C524.965576,903.345154 517.642395,904.481140 509.850830,902.025940 
	C491.191010,896.146118 472.339935,890.779236 453.973969,884.086121 
	C433.174316,876.506042 413.659302,866.006836 395.317841,853.612122 
	C384.908875,846.578003 383.020782,832.718140 390.126617,822.318237 
	C391.523865,820.273193 393.228699,818.402100 394.985046,816.643921 
	C436.185028,775.400940 477.426666,734.199707 518.603760,692.933899 
	C521.799988,689.730774 524.968384,687.498230 529.902161,687.890869 
	C535.973633,688.373901 540.140259,691.778320 540.612732,698.038452 
	C540.900513,701.851257 540.844788,705.694397 540.845642,709.523865 
	C540.858276,764.488647 540.854309,819.453369 540.854248,874.902954 
z"/>
<path fill="#282828" opacity="1.000000" stroke="none" 
	d="
M747.101440,631.898560 
	C742.611633,627.407410 738.193176,623.326538 734.194397,618.869141 
	C731.480469,615.844055 728.672363,612.550049 730.652222,607.812134 
	C732.894531,602.445862 736.539490,599.015991 742.617615,599.013611 
	C797.589783,598.991821 852.563049,598.815308 907.533508,599.125610 
	C922.530762,599.210266 933.970947,606.427246 940.299744,620.385620 
	C943.981689,628.506348 943.963928,637.051147 941.540405,645.613098 
	C931.973938,679.409973 917.703979,711.067017 899.299744,741.000671 
	C891.244019,754.102966 874.122803,759.291260 860.343689,745.319763 
	C822.912720,707.366089 785.045654,669.842590 747.101440,631.898560 
z"/>
<path fill="#282828" opacity="1.000000" stroke="none" 
	d="
M397.398621,670.398621 
	C372.164368,695.632996 347.188751,720.626038 322.192200,745.598022 
	C309.622253,758.155518 293.844543,756.562622 284.375824,741.649170 
	C265.174072,711.405945 250.709641,679.032104 241.283890,644.456177 
	C234.905304,621.057983 251.489960,599.108521 275.811066,599.044983 
	C329.810364,598.903931 383.810547,598.913269 437.809753,599.072632 
	C448.798004,599.105042 453.150269,603.592346 451.839081,612.830322 
	C451.482941,615.339417 449.651001,617.991516 447.788239,619.879272 
	C431.165283,636.724731 414.383545,653.413574 397.398621,670.398621 
z"/>
<path fill="#292828" opacity="1.000000" stroke="none" 
	d="
M650.071533,599.026001 
	C648.680908,620.228149 630.736572,641.022034 609.461304,648.019043 
	C577.077881,658.669189 544.044128,637.864014 534.770935,609.104187 
	C522.553345,571.212646 552.379761,530.003784 593.896301,531.965698 
	C619.498840,533.175659 639.539673,548.778015 647.441589,571.476929 
	C650.457092,580.139221 651.864319,589.288147 650.071533,599.026001 
z"/>
</svg>