<svg width="20" height="20" viewBox="0 0 18.0675 16.6667" fill="none" xmlns="http://www.w3.org/2000/svg">
<path d="M0.469392 10.2095C0.353145 10.1998 0.255851 10.1688 0.163865 10.0896C0.071878 10.0104 0.0021289 9.90313 0.000107218 9.79316C-0.00292531 9.6322 0.0582314 9.50369 0.201265 9.39983C0.368812 9.27827 0.537118 9.15713 0.70517 9.0362C4.58212 6.2441 8.86203 2.94887 12.7446 0.160766C12.9157 0.0379423 13.1105 -0.0395853 13.3387 0.0210893C13.5487 0.0771291 13.7072 0.240823 13.7266 0.423689C13.736 0.512805 13.7203 0.597917 13.6708 0.678396C13.6708 0.678396 11.4877 4.83333 10.8544 5.86572C10.8374 5.89332 10.8177 5.91923 10.8443 5.94978C10.8751 5.97464 10.9135 5.96326 10.9481 5.96326C13.142 5.96326 15.3356 5.96908 17.5295 5.96158C17.8105 5.96073 18.0318 6.13644 18.0642 6.37029C18.0816 6.49606 18.0298 6.61024 17.9313 6.7061C17.8815 6.75435 17.8236 6.79754 17.7657 6.83925C13.734 9.74952 8.72117 13.6913 4.65586 16.5545C4.53607 16.6387 4.38899 16.675 4.23282 16.6651C3.8674 16.6421 3.62985 16.3158 3.76884 16.0347C3.7979 15.9757 3.83303 15.9187 3.86816 15.8618L7.1877 10.3333C7.20589 10.3036 7.21878 10.2716 7.2342 10.2404C7.23571 10.2183 7.21954 10.212 7.19679 10.2114C7.16445 10.2103 7.1321 10.2107 7.09975 10.2107C4.92579 10.2107 2.75176 10.2049 0.577805 10.2126C0.540403 10.2126 0.503508 10.2124 0.469392 10.2095Z" fill="currentColor"/>
</svg>
